<svg role="img" aria-label="Moqian" xmlns="http://www.w3.org/2000/svg" width="544" height="194" viewBox="0 0 544 194" version="1.1">
	<path d="M 200.222 10.068 C 195.339 13.659, 183.143 27.696, 167 48.304 L 155.500 62.985 138.856 62.992 C 118.584 63.002, 105.131 64.282, 90.079 67.634 C 52.907 75.911, 24.115 93.825, 13.517 115.268 C 3.148 136.250, 10.764 154.418, 31.799 158.877 C 41.512 160.936, 51.811 159.535, 64.643 154.411 C 88.258 144.981, 108.487 126.367, 147.055 78.578 L 157.609 65.500 163.305 65.200 C 166.437 65.035, 169 65.163, 169 65.483 C 169 65.804, 167.931 68.189, 166.624 70.783 C 158.616 86.678, 146.110 126.317, 147.436 131.600 C 147.944 133.626, 152.612 136.834, 153.515 135.778 C 179.463 105.429, 202.511 81.140, 223.262 62.273 C 231.594 54.698, 238.001 49.175, 237.499 50 C 236.997 50.825, 234.713 53.975, 232.423 57 C 220.637 72.567, 208.124 95.669, 202.363 112.500 C 198.865 122.720, 198.400 136.435, 201.364 142 C 204.943 148.720, 209.924 152.862, 216.250 154.379 C 219.877 155.248, 219.776 153.832, 216.094 152.202 C 208.721 148.938, 207.358 134.405, 212.887 118 C 220.622 95.050, 246.995 48.704, 260.830 33.750 L 263.374 31 260.437 31.006 C 253.908 31.018, 250.153 32.959, 244.773 39.104 C 241.873 42.417, 233.200 50.677, 225.500 57.460 C 208.461 72.469, 179.515 101.825, 168.049 115.724 C 163.411 121.348, 159.481 125.814, 159.317 125.650 C 158.209 124.542, 174.646 78.280, 179.312 69.375 C 180.614 66.889, 181.266 66.595, 184.893 66.856 C 187.343 67.033, 189 66.718, 189 66.076 C 189 65.484, 187.425 65, 185.500 65 C 183.575 65, 182 64.553, 182 64.006 C 182 60.553, 205.187 13.723, 208.573 10.336 C 213.044 5.865, 206.234 5.647, 200.222 10.068 M 179.335 36.720 C 174.969 42.099, 168.790 50.100, 165.605 54.500 L 159.814 62.500 164.625 63.198 C 167.271 63.582, 169.521 63.807, 169.623 63.698 C 170.463 62.807, 187.888 27.555, 187.621 27.288 C 187.430 27.097, 183.702 31.342, 179.335 36.720 M 119 65.673 C 77.541 69.852, 44.919 83.045, 26.866 102.936 C 18.167 112.521, 14.636 120.338, 14.192 131 C 13.874 138.607, 14.085 139.865, 16.192 142.976 C 19.552 147.935, 24.006 150.586, 31.285 151.959 C 48.139 155.140, 71.054 145.070, 96 123.523 C 104.708 116.001, 148.561 71.500, 151.746 66.952 C 153.086 65.039, 152.804 65.003, 137.807 65.160 C 129.388 65.248, 120.925 65.479, 119 65.673 M 378.500 70.155 C 377.400 70.756, 375.938 71.954, 375.250 72.815 C 373.727 74.725, 373.604 79.637, 375.057 80.535 C 377.113 81.806, 381.087 79.905, 383.027 76.723 C 385.402 72.829, 385.419 72.562, 383.429 70.571 C 381.590 68.733, 381.165 68.697, 378.500 70.155 M 453.936 91.645 C 452.526 92.521, 450.158 95.399, 448.672 98.041 C 447.187 100.683, 441.141 107.442, 435.236 113.062 C 417.933 129.529, 412.977 132.360, 413.022 125.750 C 413.034 123.963, 413.896 120.624, 414.937 118.331 C 416.747 114.345, 424.664 102.279, 428.934 97 C 431.527 93.794, 431.502 93.550, 428.452 92.160 C 425.440 90.788, 421.123 92.558, 418.561 96.217 C 417.344 97.954, 417 98.081, 417 96.795 C 417 95.888, 415.805 94.205, 414.345 93.056 C 411.098 90.502, 407.389 90.969, 398.210 95.088 C 392.932 97.457, 389.794 100.106, 378.710 111.550 C 365.491 125.199, 358.350 130.732, 355.408 129.603 C 352.236 128.386, 355.384 120.572, 365.965 103.393 C 372.304 93.101, 372.528 91, 367.287 91 C 364.650 91, 363.802 91.849, 354.131 104.165 C 345.095 115.671, 327.478 130.286, 318.655 133.595 C 316.861 134.268, 317.971 132.327, 334.792 105.380 C 338.560 99.344, 339.570 96.970, 338.730 96.130 C 337.260 94.660, 333.718 94.682, 332.229 96.171 C 331.334 97.066, 330.562 96.713, 328.956 94.671 C 327.211 92.453, 326.062 92.002, 322.177 92.010 C 315.588 92.024, 308.474 95.655, 300.249 103.203 C 295.956 107.142, 291.739 110.061, 289.273 110.800 C 285.125 112.043, 277.754 112.420, 276.773 111.440 C 276.465 111.132, 276.924 109.455, 277.793 107.713 C 278.662 105.971, 279.561 102.285, 279.790 99.521 C 280.133 95.379, 279.842 94.167, 278.129 92.617 C 276.186 90.859, 275.890 90.842, 273.566 92.365 C 271.583 93.664, 270.583 93.767, 268.624 92.874 C 263.723 90.642, 250.684 97.482, 244.576 105.489 C 231.832 122.197, 239.001 139.676, 255.500 132.126 C 260.393 129.887, 268.641 122.569, 272.422 117.113 C 275.102 113.245, 275.406 113.094, 279.397 113.641 C 283.181 114.160, 287.510 113.439, 292.249 111.502 C 293.854 110.846, 293.835 111.146, 292.021 115.143 C 288.443 123.028, 289.800 130.846, 295.130 133.054 C 299.559 134.888, 303.272 132.733, 310.117 124.357 C 313.423 120.311, 316.320 117, 316.555 117 C 317.302 117, 311.303 126.284, 302.938 138.075 C 294.522 149.937, 279 179.327, 279 183.399 C 279 186.217, 281.907 189, 284.850 189 C 295.750 189, 319.758 152.430, 317.766 138.860 C 317.363 136.116, 317.749 135.655, 322.414 133.299 C 329.923 129.508, 335.420 125.511, 343.119 118.249 C 346.904 114.679, 350 111.942, 350 112.167 C 350 112.393, 349.100 114.342, 348 116.500 C 346.829 118.798, 346 122.397, 346 125.188 C 346 129.178, 346.410 130.223, 348.519 131.605 C 350.231 132.726, 352.169 133.072, 354.565 132.683 C 359.031 131.958, 369.300 124.669, 375.542 117.794 C 378.185 114.882, 379.982 113.400, 379.536 114.500 C 376.844 121.138, 376.662 123.638, 378.588 127.514 C 382.697 135.784, 386.506 134.899, 398.363 122.921 C 403.238 117.997, 406.904 114.762, 406.511 115.734 C 406.118 116.705, 405.562 120.226, 405.276 123.557 C 404.862 128.397, 405.097 129.955, 406.450 131.307 C 410.751 135.608, 417.328 132.345, 431.364 118.943 C 437.214 113.358, 442 109.033, 442 109.332 C 442 109.630, 439.525 113.816, 436.500 118.634 C 433.475 123.452, 431 128.003, 431 128.748 C 431 129.493, 432.662 130.797, 434.694 131.645 C 438.349 133.173, 438.408 133.159, 440.439 130.344 C 445.749 122.985, 471.486 97.416, 476.033 94.982 C 479.255 93.258, 479.496 94.483, 476.666 98.193 C 472.543 103.599, 466.989 116.265, 466.415 121.571 C 465.690 128.280, 468.077 132.766, 474 135.821 C 483.727 140.839, 500.508 136.651, 514.830 125.631 C 521.291 120.659, 530.352 109.388, 534.387 101.303 C 538.664 92.732, 535.664 94.415, 529.979 103.777 C 519.270 121.409, 501.836 134.388, 487.062 135.728 C 481.696 136.215, 480.941 136.032, 478.586 133.677 C 476.977 132.068, 476 129.980, 476 128.151 C 476 124.238, 479.523 113.016, 483.181 105.273 C 486.447 98.360, 486.539 94.412, 483.480 92.394 C 481.731 91.240, 480.726 91.400, 475.980 93.586 C 471.922 95.455, 467.563 99.106, 459.184 107.655 C 452.960 114.005, 447.681 119.015, 447.454 118.787 C 447.226 118.559, 450.448 112.810, 454.614 106.012 L 462.188 93.650 459.844 91.847 C 457.007 89.665, 457.119 89.669, 453.936 91.645 M 272.427 95.471 C 269.556 99.853, 270.949 110.850, 274.237 109.754 C 275.989 109.170, 278.107 101.871, 277.790 97.509 C 277.434 92.610, 274.926 91.658, 272.427 95.471 M 401.647 102.294 C 392.342 111.956, 387.068 120.072, 386.281 125.943 C 385.442 132.198, 388.036 131.226, 397.473 121.750 C 408.919 110.257, 415.185 101.513, 414.800 97.572 C 414.570 95.217, 413.951 94.422, 412.147 94.167 C 410.302 93.906, 408.037 95.658, 401.647 102.294 M 321.405 96.930 C 315.336 99.648, 305.944 109.819, 301.773 118.188 C 293.957 133.876, 296.325 135.198, 309.046 122.250 C 317.469 113.676, 328 99.897, 328 97.450 C 328 95.317, 325.456 95.116, 321.405 96.930 M 267.500 97.197 C 262.417 100.085, 256.727 105.722, 253.215 111.347 C 248.172 119.427, 246.787 123.046, 247.178 127.123 C 247.864 134.284, 255.711 131.234, 265.890 119.850 L 272.992 111.908 270.862 109.027 C 269.138 106.695, 268.824 105.178, 269.219 101.073 C 269.487 98.283, 269.660 96.014, 269.603 96.030 C 269.546 96.047, 268.600 96.572, 267.500 97.197 M 313.389 139.500 C 308.430 146.546, 294.022 169.999, 291.137 175.721 C 285.735 186.436, 287.708 188.206, 295.626 179.750 C 307.999 166.537, 316.592 149.745, 315.813 140.301 L 315.500 136.500 313.389 139.500" stroke="none" fill="currentColor" fill-rule="evenodd"/>
</svg>